HIERARCHY
ROOT Hips
{
  OFFSET -13.859 91.1892 21.8595
  CHANNELS 6 Xposition Yposition Zposition Zrotation Xrotation Yrotation
  JOINT Spine
  {
    OFFSET 10.8089 -0.851415 0
    CHANNELS 3 Zrotation Xrotation Yrotation
    JOINT Spine1
    {
      OFFSET 18.8753 3.80116 0
      CHANNELS 3 Zrotation Xrotation Yrotation
      JOINT Spine2
      {
        OFFSET 13.4073 0.420477 0
        CHANNELS 3 Zrotation Xrotation Yrotation
        JOINT LeftShoulder
        {
          OFFSET 11.8837 -2.73209 -3.78198
          CHANNELS 3 Zrotation Xrotation Yrotation
          JOINT LeftArm
          {
            OFFSET 15.7849 0 0
            CHANNELS 3 Zrotation Xrotation Yrotation
            JOINT LeftForeArm
            {
              OFFSET 30.3399 0 0
              CHANNELS 3 Zrotation Xrotation Yrotation
              JOINT LeftHand
              {
                OFFSET 26.9751 0 0
                CHANNELS 3 Zrotation Xrotation Yrotation
                End Site
                {
                  OFFSET 8 0 0
                }
              }
            }
          }
        }
        JOINT RightShoulder
        {
          OFFSET 11.8838 -2.7321 3.782
          CHANNELS 3 Zrotation Xrotation Yrotation
          JOINT RightArm
          {
            OFFSET -15.7848 0 0
            CHANNELS 3 Zrotation Xrotation Yrotation
            JOINT RightForeArm
            {
              OFFSET -30.34 0 0
              CHANNELS 3 Zrotation Xrotation Yrotation
              JOINT RightHand
              {
                OFFSET -26.9752 2.55532e-05 0
                CHANNELS 3 Zrotation Xrotation Yrotation
                End Site
                {
                  OFFSET -8 0 0
                }
              }
            }
          }
        }
        JOINT Neck
        {
          OFFSET 16.5588 -0.355317 0
          CHANNELS 3 Zrotation Xrotation Yrotation
          JOINT Head
          {
            OFFSET 9.28362 0.364158 0
            CHANNELS 3 Zrotation Xrotation Yrotation
            End Site
            {
              OFFSET 5.28361 0.364157 0
            }
          }
        }
      }
    }
  }
  JOINT LeftUpLeg
  {
    OFFSET -1.44882 -0.531424 -9.00581
    CHANNELS 3 Zrotation Xrotation Yrotation
    JOINT LeftLeg
    {
      OFFSET -42.572 0 0
      CHANNELS 3 Zrotation Xrotation Yrotation
      JOINT LeftFoot
      {
        OFFSET -40.1967 0 0
        CHANNELS 3 Zrotation Xrotation Yrotation
        JOINT LeftToe
        {
          OFFSET -10.4538 -16.5779 0.0801573
          CHANNELS 3 Zrotation Xrotation Yrotation
          End Site
          {
            OFFSET 3 0 0
          }
        }
      }
    }
  }
  JOINT RightUpLeg
  {
    OFFSET -1.44865 -0.531428 9.0058
    CHANNELS 3 Zrotation Xrotation Yrotation
    JOINT RightLeg
    {
      OFFSET 42.5723 0 0
      CHANNELS 3 Zrotation Xrotation Yrotation
      JOINT RightFoot
      {
        OFFSET 40.1968 0 -1.14441e-05
        CHANNELS 3 Zrotation Xrotation Yrotation
        JOINT RightToe
        {
          OFFSET 10.4538 16.5778 -0.0801582
          CHANNELS 3 Zrotation Xrotation Yrotation
          End Site
          {
            OFFSET -3 0 0
          }
        }
      }
    }
  }
}
MOTION
Frames:	6
Frame Time:	0.0333333
61.2648 94.1791 -151.893 -79.8564 -82.7299 -164.079 -7.08297 1.30557 -1.94832 14.2222 1.58327 -4.41537 2.93047 1.36753 -4.48674 -6.60902 29.948 97.8289 -46.618 12.8704 87.0878 -21.6989 -5.16292 -9.36522 -15.0215 -65.8151 -7.56476 174.062 28.571 96.1991 -45.0403 4.73333 79.3885 -28.2319 -4.09533 -15.0203 -15.2898 -69.6657 -11.019 -14.1783 -4.54914 6.34941 -12.9424 -12.5227 -6.23961 37.2681 4.3716 -10.3275 -42.3497 -4.23196 -1.91977 -7.78354 7.34928 2.14519 -91.8836 0.00394553 0.00895438 173.671 4.97313 11.4466 -18.7457 -6.8152 0.0914447 4.27932 -1.08813 -1.47231 -91.8836 0.00394166 0.00895438 
60.7094 94.0421 -146.317 -75.8142 -80.5164 -160.288 -6.88675 1.7179 -1.82157 14.6366 2.43687 -4.37541 3.34639 2.22206 -4.48815 -6.67327 29.9851 97.8889 -41.4659 13.406 87.1146 -20.0974 -5.27673 -8.68003 -13.3005 -63.1062 -5.80477 174.12 28.4933 96.0591 -47.4872 2.99284 78.08 -29.5365 -3.86131 -15.6461 -14.9482 -70.424 -11.3622 -14.1312 -4.50014 6.30322 -12.0882 -12.5321 -6.12825 38.0744 0.558337 -9.6262 -32.4979 -4.9209 -0.361552 -7.10605 10.6784 3.46511 -91.8836 0.00394553 0.00895438 168.819 3.21031 10.1338 -12.8807 -7.03864 1.18153 2.29579 -3.15158 -1.9158 -91.8836 0.00394166 0.00895438 
60.3169 93.7452 -140.394 -74.7094 -79.0709 -159.797 -6.72919 1.9906 -1.59907 14.9673 3.06886 -4.08287 3.67947 2.86745 -4.22662 -6.67608 30.092 97.9213 -36.1385 14.7259 86.8234 -18.9687 -5.23425 -8.20028 -12.9455 -61.6179 -4.96615 174.232 28.5139 95.8629 -47.6965 1.83253 77.6303 -31.0494 -3.59406 -16.3658 -15.0261 -70.5319 -11.4918 -14.0023 -4.26808 6.1966 -12.0756 -12.116 -6.13561 38.4712 -2.91292 -8.36584 -27.4838 -5.25478 0.607663 -0.865884 15.4162 3.52855 -91.8836 0.00394553 0.00895438 165.123 2.18809 8.49317 -10.513 -7.11904 1.5589 0.135928 -4.612 -2.25861 -91.8836 0.00394166 0.00895438 
59.8255 93.1121 -134.22 -78.612 -78.6864 -163.685 -6.86271 2.1679 -1.52224 14.7099 3.45485 -4.01805 3.42333 3.25614 -4.18061 -6.92651 30.0552 98.1017 -30.2763 14.1429 85.7449 -16.0823 -5.40977 -7.03765 -12.357 -60.8899 -4.46391 174.24 28.5176 95.8635 -46.6157 0.396996 77.2936 -31.7246 -3.41057 -16.7599 -15.2426 -71.3096 -11.7728 -13.9909 -4.3225 5.70568 -11.4275 -12.7032 -5.43137 38.7426 4.19534 -9.20989 -27.3359 -5.42073 0.732928 -1.92308 9.56883 2.04894 -91.8836 0.00394553 0.00895438 163.832 1.32326 7.97342 -15.3843 -7.0947 0.434561 -1.45346 -6.64563 -2.6721 -91.8836 0.00394166 0.00895438 
59.385 92.7858 -127.464 -81.6926 -79.1288 -167.024 -7.22838 2.16879 -1.42352 13.9779 3.51733 -3.81591 2.69218 3.32831 -3.98178 -7.18868 30.0833 98.3161 -24.4156 12.2023 84.6792 -13.5209 -5.58164 -6.02259 -10.5189 -56.5433 -2.73657 174.293 28.5203 95.8735 -45.5983 -1.11032 76.7925 -32.3736 -3.26026 -17.089 -17.351 -73.666 -13.8512 -10.4841 -4.67572 6.87071 -15.304 -12.7023 -7.02182 37.928 7.76451 -8.44265 -31.6161 -5.28838 -0.0300804 -5.54934 5.14212 0.914116 -91.8836 0.00394553 0.00895438 163.887 2.36245 7.36169 -22.0979 -6.97601 -1.00317 -8.27594 -10.1307 -4.28435 -91.8836 0.00394166 0.00895438 
59.3191 92.7001 -120.587 -85.2795 -78.3515 -172.882 -6.79455 2.25597 -0.930801 14.8457 3.91442 -2.91724 3.56388 3.76844 -3.10363 -7.26135 30.3468 98.4619 -18.8695 14.1097 82.7158 -11.8187 -5.64842 -5.22935 -9.38907 -50.4519 -1.1789 174.435 28.7186 95.7132 -43.9118 2.1165 78.4316 -32.4872 -3.26045 -17.0549 -18.2562 -74.5544 -14.7683 -14.1173 -4.97456 6.43305 -14.8041 -12.8771 -7.32386 36.5021 8.98031 -6.13848 -35.4635 -5.13756 -0.696356 -10.9222 2.95004 0.506919 -91.8836 0.00394553 0.00895438 167.751 4.01864 3.98327 -31.9025 -6.42026 -2.51495 -25.161 -11.357 -8.07855 -91.8836 0.00394166 0.00895438 
